<?xml version="1.0" encoding="iso-8859-1"?>
<!-- Generator: Adobe Illustrator 19.0.0, SVG Export Plug-In . SVG Version: 6.00 Build 0)  -->
<svg version="1.1" id="Layer_1" xmlns="http://www.w3.org/2000/svg" xmlns:xlink="http://www.w3.org/1999/xlink" x="0px" y="0px"
	 viewBox="0 0 512.001 512.001" style="enable-background:new 0 0 512.001 512.001;" xml:space="preserve">
<path style="fill:#FF6C5C;" d="M256.001,0C147.231,0,58.74,88.491,58.74,197.261c0,45.1,32.33,111.487,96.089,197.313
	c46.956,63.206,94.563,114.294,95.039,114.803c3.27,3.498,8.995,3.498,12.265,0c0.475-0.509,48.082-51.596,95.039-114.803
	c63.76-85.826,96.089-152.212,96.089-197.313C453.262,88.491,364.77,0,256.001,0z"/>
<path style="fill:#FF4A36;" d="M180.011,403.007c-63.76-85.826-96.089-152.212-96.089-197.313
	c0-108.769,88.491-197.261,197.261-197.261c17.162,0,33.817,2.208,49.7,6.346C307.78,5.263,282.496,0,256.001,0
	C147.231,0,58.74,88.491,58.74,197.261c0,45.1,32.33,111.487,96.089,197.313c46.956,63.206,94.563,114.294,95.039,114.803
	c3.27,3.497,8.995,3.497,12.265,0c0.064-0.068,0.988-1.061,2.643-2.867C248.188,487.997,213.932,448.668,180.011,403.007z"/>
<circle style="fill:#EDECEB;" cx="255.999" cy="197.261" r="155.29"/>
<path style="fill:#38CED9;" d="M403.247,211.602c-4.196-1.06-8.506,1.239-9.964,5.312c-2.977,8.328-10.921,13.923-19.765,13.923
	c-11.571,0-20.985-9.414-20.985-20.985c0-4.636-3.758-8.394-8.394-8.394c-4.636,0-8.394,3.758-8.394,8.394
	c0,11.571-9.414,20.985-20.985,20.985s-20.985-9.414-20.985-20.985c0-4.636-3.758-8.394-8.394-8.394s-8.394,3.758-8.394,8.394
	c0,11.571-9.414,20.985-20.985,20.985c-11.571,0-20.985-9.414-20.985-20.985c0-4.636-3.758-8.394-8.394-8.394
	c-4.636,0-8.394,3.758-8.394,8.394c0,11.571-9.414,20.985-20.985,20.985c-11.571,0-20.985-9.414-20.985-20.985
	c0-4.636-3.758-8.394-8.394-8.394s-8.394,3.758-8.394,8.394c0,11.571-9.414,20.985-20.985,20.985
	c-8.845,0-16.788-5.595-19.765-13.923c-1.456-4.074-5.772-6.372-9.964-5.312c-4.193,1.062-6.894,5.137-6.237,9.412
	c5.572,36.279,24.002,69.557,51.897,93.704c28.183,24.396,64.261,37.833,101.585,37.833s73.401-13.437,101.585-37.834
	c27.896-24.148,46.326-57.425,51.897-93.704C410.14,216.738,407.439,212.664,403.247,211.602z"/>
<path style="fill:#89EBF0;" d="M256.001,352.551c49.514,0,93.613-23.174,122.048-59.265c-1.469,0.326-2.985,0.507-4.531,0.507
	c-11.571,0-20.985-9.414-20.985-20.985c0-4.636-3.758-8.394-8.394-8.394c-4.636,0-8.394,3.758-8.394,8.394
	c0,11.571-9.414,20.985-20.985,20.985s-20.985-9.414-20.985-20.985c0-4.636-3.758-8.394-8.394-8.394s-8.394,3.758-8.394,8.394
	c0,11.571-9.414,20.985-20.985,20.985c-11.571,0-20.985-9.414-20.985-20.985c0-4.636-3.758-8.394-8.394-8.394
	c-4.636,0-8.394,3.758-8.394,8.394c0,11.571-9.414,20.985-20.985,20.985c-11.571,0-20.985-9.414-20.985-20.985
	c0-4.636-3.758-8.394-8.394-8.394s-8.394,3.758-8.394,8.394c0,11.571-9.414,20.985-20.985,20.985c-1.547,0-3.062-0.18-4.531-0.507
	C162.388,329.377,206.487,352.551,256.001,352.551z"/>
<circle style="fill:#FF9940;" cx="255.999" cy="138.502" r="37.773"/>
<g>
	<circle style="fill:#FFD042;" cx="255.999" cy="138.502" r="25.182"/>
	<path style="fill:#FFD042;" d="M256.001,92.335c-4.636,0-8.394-3.758-8.394-8.394v-8.394c0-4.636,3.758-8.394,8.394-8.394
		c4.636,0,8.394,3.758,8.394,8.394v8.394C264.395,88.576,260.636,92.335,256.001,92.335z"/>
	<path style="fill:#FFD042;" d="M217.42,108.315c-2.149,0-4.297-0.819-5.936-2.458l-5.936-5.936c-3.278-3.279-3.278-8.592,0-11.871
		c3.279-3.277,8.592-3.277,11.871,0l5.936,5.936c3.278,3.279,3.278,8.592,0,11.871C221.716,107.496,219.568,108.315,217.42,108.315z
		"/>
	<path style="fill:#FFD042;" d="M201.439,146.896h-8.394c-4.636,0-8.394-3.758-8.394-8.394c0-4.636,3.758-8.394,8.394-8.394h8.394
		c4.636,0,8.394,3.758,8.394,8.394C209.833,143.138,206.075,146.896,201.439,146.896z"/>
	<path style="fill:#FFD042;" d="M211.484,191.413c-2.149,0-4.297-0.819-5.936-2.458c-3.278-3.279-3.278-8.592,0-11.871l5.936-5.936
		c3.279-3.277,8.592-3.277,11.871,0c3.278,3.279,3.278,8.592,0,11.871l-5.936,5.936
		C215.781,190.594,213.633,191.413,211.484,191.413z"/>
	<path style="fill:#FFD042;" d="M256.001,209.852c-4.636,0-8.394-3.758-8.394-8.394v-8.394c0-4.636,3.758-8.394,8.394-8.394
		c4.636,0,8.394,3.758,8.394,8.394v8.394C264.395,206.094,260.636,209.852,256.001,209.852z"/>
	<path style="fill:#FFD042;" d="M300.517,191.413c-2.149,0-4.297-0.819-5.936-2.458l-5.936-5.936c-3.278-3.279-3.278-8.592,0-11.871
		c3.279-3.277,8.592-3.277,11.871,0l5.936,5.936c3.278,3.279,3.278,8.592,0,11.871C304.813,190.594,302.666,191.413,300.517,191.413
		z"/>
	<path style="fill:#FFD042;" d="M318.956,146.896h-8.394c-4.636,0-8.394-3.758-8.394-8.394c0-4.636,3.758-8.394,8.394-8.394h8.394
		c4.636,0,8.394,3.758,8.394,8.394C327.35,143.138,323.592,146.896,318.956,146.896z"/>
	<path style="fill:#FFD042;" d="M294.581,108.315c-2.149,0-4.297-0.819-5.936-2.458c-3.278-3.279-3.278-8.592,0-11.871l5.936-5.936
		c3.279-3.277,8.592-3.277,11.871,0c3.278,3.279,3.278,8.592,0,11.871l-5.936,5.936C298.878,107.496,296.73,108.315,294.581,108.315
		z"/>
</g>
<g>
</g>
<g>
</g>
<g>
</g>
<g>
</g>
<g>
</g>
<g>
</g>
<g>
</g>
<g>
</g>
<g>
</g>
<g>
</g>
<g>
</g>
<g>
</g>
<g>
</g>
<g>
</g>
<g>
</g>
</svg>
